<svg xmlns="http://www.w3.org/2000/svg" width="960" height="290" viewBox="0 0 960 290" role="img" aria-label="账号和密码是怎么配置、怎么保存的">
<style>
text{font-family:-apple-system,BlinkMacSystemFont,'Segoe UI','PingFang SC','Hiragino Sans GB','Microsoft YaHei','Noto Sans CJK SC',Helvetica,Arial,sans-serif;fill:#1f2328;font-size:13px}
.h{font-size:15px;font-weight:600}.hb{font-size:17px;font-weight:700}
.s{font-size:13px;fill:#57606a}.xs{font-size:12px;fill:#6f7781}
.mono{font-family:ui-monospace,SFMono-Regular,Menlo,Consolas,'PingFang SC','Microsoft YaHei',monospace;font-size:12px;fill:#57606a}
.w{fill:#ffffff;font-weight:600}
.bg{fill:#ffffff}
.line{stroke:#8c959f;stroke-width:1.6;fill:none;stroke-linecap:round;stroke-linejoin:round}
.line.soft{stroke:#c9d1d9}
.ar{stroke:#8c959f;stroke-width:1.6;fill:none;marker-end:url(#ah);stroke-linecap:round;stroke-linejoin:round}
.ar.blue{stroke:#2f5fdb;marker-end:url(#ah-blue)}.ar.green{stroke:#1a7f37;marker-end:url(#ah-green)}
.ar.red{stroke:#cf222e;marker-end:url(#ah-red)}.ar.amber{stroke:#9a6700;marker-end:url(#ah-amber)}
.ar.dash{stroke-dasharray:5 4}
.ic{fill:none;stroke-width:1.9;stroke-linecap:round;stroke-linejoin:round}
.c-gray{fill:#f6f8fa;stroke:#d8dee4;stroke-width:1}.f-gray{fill:#57606a}.k-gray{stroke:#57606a}.t-gray{fill:#57606a}.ic-gray{stroke:#57606a}.sf-gray{fill:#f6f8fa}.ss-gray{stroke:#d8dee4}
.c-blue{fill:#eef4ff;stroke:#c7d7fe;stroke-width:1}.f-blue{fill:#2f5fdb}.k-blue{stroke:#2f5fdb}.t-blue{fill:#2f5fdb}.ic-blue{stroke:#2f5fdb}.sf-blue{fill:#eef4ff}.ss-blue{stroke:#c7d7fe}
.c-green{fill:#ecfdf3;stroke:#b7e4c7;stroke-width:1}.f-green{fill:#1a7f37}.k-green{stroke:#1a7f37}.t-green{fill:#1a7f37}.ic-green{stroke:#1a7f37}.sf-green{fill:#ecfdf3}.ss-green{stroke:#b7e4c7}
.c-amber{fill:#fff8e6;stroke:#f5d78a;stroke-width:1}.f-amber{fill:#9a6700}.k-amber{stroke:#9a6700}.t-amber{fill:#9a6700}.ic-amber{stroke:#9a6700}.sf-amber{fill:#fff8e6}.ss-amber{stroke:#f5d78a}
.c-red{fill:#fff1f0;stroke:#f7b9b4;stroke-width:1}.f-red{fill:#cf222e}.k-red{stroke:#cf222e}.t-red{fill:#cf222e}.ic-red{stroke:#cf222e}.sf-red{fill:#fff1f0}.ss-red{stroke:#f7b9b4}
.c-purple{fill:#f6f1ff;stroke:#d6c7f5;stroke-width:1}.f-purple{fill:#6e40c9}.k-purple{stroke:#6e40c9}.t-purple{fill:#6e40c9}.ic-purple{stroke:#6e40c9}.sf-purple{fill:#f6f1ff}.ss-purple{stroke:#d6c7f5}
@media (prefers-color-scheme: dark){
text{fill:#e6edf3}.s{fill:#a3adb8}.xs{fill:#8b949e}.mono{fill:#a3adb8}.w{fill:#ffffff}
.bg{fill:#0d1117}
.line{stroke:#6e7681}.line.soft{stroke:#30363d}
.ar{stroke:#6e7681}
.ar.blue{stroke:#79a6ff}.ar.green{stroke:#4ad07a}.ar.red{stroke:#ff7b72}.ar.amber{stroke:#e3b341}
.c-gray{fill:#161b22;stroke:#30363d}.f-gray{fill:#8b949e}.k-gray{stroke:#8b949e}.t-gray{fill:#8b949e}.ic-gray{stroke:#8b949e}.sf-gray{fill:#161b22}.ss-gray{stroke:#30363d}
.c-blue{fill:#12203a;stroke:#2b4a86}.f-blue{fill:#79a6ff}.k-blue{stroke:#79a6ff}.t-blue{fill:#79a6ff}.ic-blue{stroke:#79a6ff}.sf-blue{fill:#12203a}.ss-blue{stroke:#2b4a86}
.c-green{fill:#0f2a1a;stroke:#1f5a33}.f-green{fill:#4ad07a}.k-green{stroke:#4ad07a}.t-green{fill:#4ad07a}.ic-green{stroke:#4ad07a}.sf-green{fill:#0f2a1a}.ss-green{stroke:#1f5a33}
.c-amber{fill:#2e2410;stroke:#6b4f12}.f-amber{fill:#e3b341}.k-amber{stroke:#e3b341}.t-amber{fill:#e3b341}.ic-amber{stroke:#e3b341}.sf-amber{fill:#2e2410}.ss-amber{stroke:#6b4f12}
.c-red{fill:#301416;stroke:#7a2a2e}.f-red{fill:#ff7b72}.k-red{stroke:#ff7b72}.t-red{fill:#ff7b72}.ic-red{stroke:#ff7b72}.sf-red{fill:#301416}.ss-red{stroke:#7a2a2e}
.c-purple{fill:#231a36;stroke:#4a3480}.f-purple{fill:#b083f0}.k-purple{stroke:#b083f0}.t-purple{fill:#b083f0}.ic-purple{stroke:#b083f0}.sf-purple{fill:#231a36}.ss-purple{stroke:#4a3480}
}
</style>
<defs><marker id="ah" viewBox="0 0 10 10" refX="8.5" refY="5" markerWidth="7" markerHeight="7" orient="auto-start-reverse"><path d="M1,1 L9,5 L1,9" fill="none" stroke="#8c959f" stroke-width="1.8" stroke-linecap="round" stroke-linejoin="round"/></marker><marker id="ah-blue" viewBox="0 0 10 10" refX="8.5" refY="5" markerWidth="7" markerHeight="7" orient="auto-start-reverse"><path d="M1,1 L9,5 L1,9" fill="none" stroke="#2f5fdb" stroke-width="1.8" stroke-linecap="round" stroke-linejoin="round"/></marker><marker id="ah-green" viewBox="0 0 10 10" refX="8.5" refY="5" markerWidth="7" markerHeight="7" orient="auto-start-reverse"><path d="M1,1 L9,5 L1,9" fill="none" stroke="#1a7f37" stroke-width="1.8" stroke-linecap="round" stroke-linejoin="round"/></marker><marker id="ah-red" viewBox="0 0 10 10" refX="8.5" refY="5" markerWidth="7" markerHeight="7" orient="auto-start-reverse"><path d="M1,1 L9,5 L1,9" fill="none" stroke="#cf222e" stroke-width="1.8" stroke-linecap="round" stroke-linejoin="round"/></marker><marker id="ah-amber" viewBox="0 0 10 10" refX="8.5" refY="5" markerWidth="7" markerHeight="7" orient="auto-start-reverse"><path d="M1,1 L9,5 L1,9" fill="none" stroke="#9a6700" stroke-width="1.8" stroke-linecap="round" stroke-linejoin="round"/></marker></defs>
<rect width="960" height="290" class="bg"/>
<rect x="24.0" y="24.0" width="214.5" height="160.0" rx="12" class="c-gray"/>
<circle cx="53.0" cy="53.0" r="13" class="f-blue"/>
<text x="53" y="58" class="w" text-anchor="middle" style="font-size:13px">1</text>
<g transform="translate(196.5,42.0) scale(1.000)" class="ic ic-blue"><path d="M15 2H6a2 2 0 0 0-2 2v16a2 2 0 0 0 2 2h12a2 2 0 0 0 2-2V7Z"/><path d="M14 2v4a2 2 0 0 0 2 2h4"/><path d="M10 9H8"/><path d="M16 13H8"/><path d="M16 17H8"/></g>
<text x="40" y="94" class="h">写账号文件</text>
<text x="40" y="118" class="s">只有用户名和 uid，不敏感</text>
<path d="M240.5,104.0 L254.5,104.0" class="ar"/>
<rect x="256.5" y="24.0" width="214.5" height="160.0" rx="12" class="c-gray"/>
<circle cx="285.5" cy="53.0" r="13" class="f-blue"/>
<text x="286" y="58" class="w" text-anchor="middle" style="font-size:13px">2</text>
<g transform="translate(429.0,42.0) scale(1.000)" class="ic ic-blue"><path d="m15.5 7.5 2.3 2.3a1 1 0 0 0 1.4 0l2.1-2.1a1 1 0 0 0 0-1.4L19 4"/><path d="m21 2-9.6 9.6"/><circle cx="7.5" cy="15.5" r="5.5"/></g>
<text x="272" y="94" class="h">输一次密码</text>
<text x="272" y="118" class="s">在终端里隐藏输入，屏幕上不</text>
<text x="272" y="137" class="s">显示</text>
<path d="M473.0,104.0 L487.0,104.0" class="ar"/>
<rect x="489.0" y="24.0" width="214.5" height="160.0" rx="12" class="c-gray"/>
<circle cx="518.0" cy="53.0" r="13" class="f-blue"/>
<text x="518" y="58" class="w" text-anchor="middle" style="font-size:13px">3</text>
<g transform="translate(661.5,42.0) scale(1.000)" class="ic ic-blue"><rect x="3" y="11" width="18" height="11" rx="2"/><path d="M7 11V7a5 5 0 0 1 10 0v4"/></g>
<text x="505" y="94" class="h">交给系统保管</text>
<text x="505" y="118" class="s">macOS 放进钥匙串，Windows</text>
<text x="505" y="137" class="s">用系统加密，只有这台电脑、</text>
<text x="505" y="156" class="s">这个用户能解开</text>
<path d="M705.5,104.0 L719.5,104.0" class="ar"/>
<rect x="721.5" y="24.0" width="214.5" height="160.0" rx="12" class="c-gray"/>
<circle cx="750.5" cy="53.0" r="13" class="f-blue"/>
<text x="750" y="58" class="w" text-anchor="middle" style="font-size:13px">4</text>
<g transform="translate(894.0,42.0) scale(1.000)" class="ic ic-blue"><path d="M20 13c0 5-3.5 7.5-7.66 8.95a1 1 0 0 1-.67-.01C7.5 20.5 4 18 4 13V6a1 1 0 0 1 1-1c2 0 4.5-1.2 6.24-2.72a1.17 1.17 0 0 1 1.52 0C14.51 3.81 17 5 19 5a1 1 0 0 1 1 1z"/></g>
<text x="738" y="94" class="h">需要时才取出</text>
<text x="738" y="118" class="s">只在重新登录那一刻取出，填</text>
<text x="738" y="137" class="s">进登录页就丢掉</text>
<rect x="24.0" y="208.0" width="912.0" height="43.0" rx="10" class="c-gray"/>
<g transform="translate(38.0,216.5) scale(0.833)" class="ic ic-blue"><path d="M20 13c0 5-3.5 7.5-7.66 8.95a1 1 0 0 1-.67-.01C7.5 20.5 4 18 4 13V6a1 1 0 0 1 1-1c2 0 4.5-1.2 6.24-2.72a1.17 1.17 0 0 1 1.52 0C14.51 3.81 17 5 19 5a1 1 0 0 1 1 1z"/><path d="m9 12 2 2 4-4"/></g>
<text x="68" y="232" class="s">密码不写日志、不进 AI 助手的对话、不进仓库。换电脑要重新配；改了论坛密码就重做第 2、3 步。</text>
</svg>
