<svg xmlns="http://www.w3.org/2000/svg" width="520" height="260" viewBox="0 0 520 260" role="img" aria-label="今日任务：签到领奖已完成，每日答题已完成">
<style>
text{font-family:-apple-system,BlinkMacSystemFont,'Segoe UI','PingFang SC','Hiragino Sans GB','Microsoft YaHei','Noto Sans CJK SC',Helvetica,Arial,sans-serif}
.nav{font-size:17px;fill:#57606a}.navb{font-size:17px;fill:#1f2328;font-weight:600}
.row{font-size:21px;fill:#8b949e}.done{font-size:18px;fill:#8b949e}
</style>
<rect x="0.5" y="0.5" width="519" height="259" rx="10" fill="#ffffff" stroke="#d0d7de"/>
<path d="M1,11 a10,10 0 0 1 10,-10 h498 a10,10 0 0 1 10,10 v43 h-518 z" fill="#f6f8fa"/>
<text x="376" y="36" class="navb">旧版</text>
<text x="428" y="36" class="nav">今日任务</text>
<rect x="14" y="62" width="492" height="180" rx="14" fill="#ffffff" stroke="#e5e7eb"/>
<g transform="translate(40,90)" fill="none" stroke="#9aa0a6" stroke-width="2.2" stroke-linecap="round" stroke-linejoin="round">
  <rect x="0" y="4" width="28" height="26" rx="4"/>
  <line x1="0" y1="12" x2="28" y2="12"/>
  <line x1="7" y1="0" x2="7" y2="8"/>
  <line x1="21" y1="0" x2="21" y2="8"/>
  <polyline points="8,21 12,25 20,17"/>
</g>
<text x="90" y="115" class="row">签到领奖</text>
<text x="386" y="114" class="done">✓ 已完成</text>
<line x1="30" y1="152" x2="490" y2="152" stroke="#eef0f2"/>
<g transform="translate(38,172)" fill="none" stroke="#9aa0a6" stroke-width="2.2" stroke-linecap="round" stroke-linejoin="round">
  <polygon points="2,26 0,6 9,14 15,2 21,14 30,6 28,26"/>
  <line x1="2" y1="31" x2="28" y2="31"/>
</g>
<text x="90" y="197" class="row">每日答题</text>
<text x="386" y="196" class="done">✓ 已完成</text>
</svg>
